<svg width="16" height="16" viewBox="0 0 16 16" fill="none" xmlns="http://www.w3.org/2000/svg">
<g clip-path="url(#clip0_10_49)">
<path d="M8.03464 9.88566L8.97744 10.8285L11.8059 8.00005L8.97744 5.17162L8.03464 6.11443L9.25359 7.33338H4.22883V8.66671H9.25359L8.03464 9.88566Z" fill="#303188"/>
<path fill-rule="evenodd" clip-rule="evenodd" d="M13.1855 13.1855C16.0493 10.3216 16.0493 5.67842 13.1855 2.81457C10.3216 -0.0492741 5.67842 -0.0492741 2.81457 2.81457C-0.0492741 5.67842 -0.0492741 10.3216 2.81457 13.1855C5.67842 16.0493 10.3216 16.0493 13.1855 13.1855ZM12.2427 12.2427C14.5858 9.89952 14.5858 6.10053 12.2427 3.75738C9.89951 1.41423 6.10052 1.41423 3.75738 3.75738C1.41423 6.10053 1.41423 9.89952 3.75738 12.2427C6.10052 14.5858 9.89951 14.5858 12.2427 12.2427Z" fill="#303188"/>
</g>
<defs>
<clipPath id="clip0_10_49">
<rect width="16" height="16" fill="white"/>
</clipPath>
</defs>
</svg>
