<svg width="33" height="34" viewBox="0 0 33 34" fill="none" xmlns="http://www.w3.org/2000/svg">
<g clip-path="url(#clip0_1_290)">
<path d="M20.1248 12.7868C19.4257 12.7868 18.908 12.9632 18.5027 13.1859C18.4377 12.9549 18.2242 12.7858 17.9726 12.8363H14.8954C14.5912 12.7858 14.3447 13.0323 14.4385 13.352V24.6957C14.3447 24.9845 14.5912 25.232 14.8954 25.2113H17.9726C18.2768 25.232 18.5233 24.9845 18.5233 24.6802L18.5223 17.8245C18.5212 17.8214 18.5099 17.4935 18.7172 17.2676C18.8832 17.0882 19.1689 16.9964 19.5638 16.9964C20.2218 16.9964 20.5147 17.2656 20.624 17.8678V24.6802C20.5157 24.9845 20.7622 25.232 21.0664 25.2113H24.3097C24.6139 25.232 24.8603 24.9845 24.751 24.6802V17.6389C24.8593 14.0584 22.309 12.7868 20.1248 12.7868ZM23.7579 24.1801H21.6171V17.8678C21.6171 16.6499 20.8302 15.895 19.5649 15.895C18.8492 15.895 18.2923 16.1054 17.9087 16.52C17.3755 17.0975 17.4168 17.8296 17.5312 17.9926V24.1801H15.4461V13.8882H17.4219V14.2347C17.4211 14.3379 17.4495 14.4393 17.5037 14.5271C17.5579 14.615 17.6358 14.6857 17.7284 14.7313C17.821 14.7769 17.9246 14.7954 18.0273 14.7847C18.13 14.774 18.2275 14.7346 18.3088 14.6709L18.4532 14.5596C18.8708 14.2306 19.3029 13.8892 20.1259 13.8892C20.9777 13.8892 23.759 14.1605 23.759 17.6399V24.1801H23.7579ZM11.3437 7.64502C10.1867 7.64502 9.24619 8.58552 9.24619 9.74258C9.24619 10.8996 10.1867 11.8401 11.3437 11.8401C12.5008 11.8401 13.4413 10.8996 13.4413 9.74258C13.4413 8.58552 12.5008 7.64502 11.3437 7.64502ZM11.3437 10.7388C10.7951 10.7388 10.3476 10.2912 10.3476 9.74258C10.3476 9.19396 10.7951 8.74639 11.3437 8.74639C11.8924 8.74639 12.3399 9.19396 12.3399 9.74258C12.3399 10.2912 11.8924 10.7388 11.3437 10.7388ZM12.8164 12.7858H9.75562C9.4514 12.7858 9.20494 13.0323 9.28125 13.352V24.6957C9.20494 24.9845 9.4514 25.232 9.75562 25.2113H12.8164C13.1206 25.232 13.3671 24.9845 13.3671 24.6802V13.3365C13.3671 13.1904 13.309 13.0504 13.2058 12.9471C13.1025 12.8438 12.9624 12.7858 12.8164 12.7858ZM12.375 24.1801H10.3063V13.8882H12.375V24.1801Z" fill="#444444"/>
<path d="M16.5 0.42627C7.38169 0.42627 -0.0350628 7.84302 -0.0350628 16.9613C-0.0350628 26.0796 7.38169 33.4964 16.5 33.4964C25.6183 33.4964 33.0351 26.0796 33.0351 16.9613C33.0351 7.84302 25.6183 0.42627 16.5 0.42627ZM16.5 32.395C7.99013 32.395 1.06631 25.4712 1.06631 16.9613C1.06631 8.45146 7.99013 1.52764 16.5 1.52764C25.0099 1.52764 31.9337 8.45146 31.9337 16.9613C31.9337 25.4712 25.0099 32.395 16.5 32.395Z" fill="#444444"/>
</g>
<defs>
<clipPath id="clip0_1_290">
<rect width="33" height="33" fill="white" transform="translate(0 0.461426)"/>
</clipPath>
</defs>
</svg>
