<svg width="60" height="60" viewBox="0 0 60 60" fill="none" xmlns="http://www.w3.org/2000/svg">
<circle cx="30" cy="30" r="30" fill="#F3F7FB"/>
<path fill-rule="evenodd" clip-rule="evenodd" d="M18.0962 13.0432C17.751 13.1248 17.2508 13.4406 17.0439 13.7075C16.7017 14.1491 16.6681 14.353 16.6648 16.0148L16.6617 17.5597H15.6515C14.1745 17.5597 13.6784 17.7557 13.2221 18.5196L13.0282 18.8443L13.0098 30.6105C12.9891 43.7648 12.9509 42.7682 13.4969 43.3219C14.0792 43.9125 13.5535 43.8722 20.7009 43.8739L27.0332 43.8754V45.2673C27.0332 46.6525 27.034 46.66 27.2064 46.8295L27.3795 47H31.8308H36.2822L36.4553 46.8295C36.6277 46.66 36.6285 46.6525 36.6285 45.2673V43.8754H39.2957H41.9629L42.328 43.6964C42.5288 43.5979 42.7894 43.3977 42.9072 43.2514C43.2914 42.7739 43.3311 42.5525 43.3311 40.8883V39.3768L44.4424 39.3521C45.4921 39.3289 45.5759 39.3166 45.9579 39.1321C46.1802 39.0247 46.4571 38.8233 46.5732 38.6847C47.0282 38.1415 47 38.97 46.9995 26.1746C46.9993 18.3736 46.9751 14.4541 46.9261 14.2807C46.8152 13.8876 46.4387 13.4519 46.0096 13.2201L45.6241 13.0118L31.9719 13.0011C24.4632 12.9952 18.2191 13.0141 18.0962 13.0432ZM18.0796 14.037C17.9863 14.0841 17.8434 14.2109 17.7621 14.3186C17.6206 14.5061 17.6133 14.6069 17.5937 16.662L17.5731 18.8096H19.0929H20.6127L20.6132 17.9243C20.6137 16.9677 20.6851 16.7417 21.0495 16.5427C21.2776 16.4181 26.1501 16.4139 26.3734 16.538C26.4568 16.5844 27.0075 17.1145 27.5973 17.716L28.6695 18.8096H37.3761H46.0827V16.759C46.0827 14.4802 46.0594 14.3378 45.646 14.0898C45.4139 13.9505 45.3297 13.9497 31.8308 13.9504C21.1918 13.951 18.2124 13.9698 18.0796 14.037ZM36.946 15.1874C36.6028 15.348 36.3887 15.5682 36.2438 15.9094C36.0913 16.2687 36.107 16.5063 36.3098 16.9039C36.5191 17.3143 36.865 17.5639 37.2897 17.611C38.0845 17.6992 38.7451 17.1244 38.7451 16.3446C38.7451 15.4343 37.7653 14.804 36.946 15.1874ZM40.0878 15.17C39.545 15.4017 39.2791 15.8485 39.3236 16.4539C39.3728 17.124 39.9161 17.6238 40.5994 17.6276C41.1494 17.6308 41.6931 17.2156 41.8453 16.6763C41.9364 16.3533 41.9364 16.336 41.8464 16.017C41.6409 15.2888 40.7804 14.8744 40.0878 15.17ZM43.2253 15.1568C42.9313 15.2836 42.5737 15.662 42.4778 15.9478C42.1929 16.7977 42.9233 17.6987 43.8279 17.6132C44.82 17.5194 45.3424 16.4432 44.7927 15.6257C44.4701 15.146 43.7499 14.9306 43.2253 15.1568ZM37.2676 16.0788C37.0399 16.2358 37.0906 16.5968 37.3532 16.6872C37.5154 16.7429 37.575 16.7285 37.7025 16.6031C37.8285 16.4791 37.8441 16.4184 37.7892 16.2669C37.7013 16.0247 37.4682 15.9406 37.2676 16.0788ZM43.5917 16.017C43.4221 16.0527 43.3097 16.349 43.4016 16.5181C43.5491 16.7894 43.9758 16.747 44.0711 16.4515C44.159 16.1789 43.9072 15.9507 43.5917 16.017ZM40.3114 16.1155C40.1826 16.2423 40.2102 16.4819 40.37 16.6242C40.6782 16.8988 41.125 16.4484 40.8582 16.1322C40.7558 16.0108 40.428 16.0008 40.3114 16.1155ZM21.5299 18.2551V19.1587L21.2886 19.4182L21.0471 19.6775L19.3131 19.6983L17.5789 19.7191V28.675C17.5789 38.2837 17.5647 37.8965 17.9294 38.2165C18.0838 38.3521 18.1979 38.3557 22.7544 38.3696L27.4212 38.3837L27.0527 38.2181C26.8157 38.1116 26.6333 37.9702 26.5415 37.822C26.2295 37.3186 26.1891 37.4086 28.8378 32.715C30.1796 30.3372 31.3455 28.3449 31.4287 28.2875C31.6233 28.1534 32.0387 28.1536 32.2337 28.288C32.3173 28.3457 33.4832 30.3388 34.8246 32.7172C36.908 36.4114 37.2635 37.0828 37.2635 37.3237C37.2635 37.7382 37.025 38.044 36.5553 38.2317L36.1699 38.3859L40.7912 38.3878C45.3039 38.3896 45.418 38.3863 45.646 38.2494C46.1083 37.972 46.0827 38.5344 46.0827 28.6715V19.7122L37.2458 19.7119C28.7805 19.7117 28.4 19.7063 28.1955 19.5835C28.0781 19.5131 27.5247 18.982 26.9657 18.4034L25.9494 17.3514H23.7397H21.5299V18.2551ZM14.2992 18.6824C13.8875 19.001 13.9101 18.2997 13.9101 30.7523C13.9101 43.3677 13.8806 42.5524 14.3469 42.8321C14.5764 42.9699 14.6861 42.9723 20.8068 42.9725L27.0332 42.9728V42.098C27.0332 40.7766 27.2001 40.5356 28.1584 40.4731L28.6912 40.4384L28.6773 40.1383C28.6697 39.9732 28.6278 39.7319 28.5844 39.6022L28.5053 39.3664L23.2714 39.347L18.0375 39.3275L17.6495 39.1121C17.2133 38.8699 16.8445 38.4449 16.7355 38.0586C16.6868 37.8862 16.6624 34.5884 16.6621 28.1659L16.6617 18.5318H15.5777C14.5724 18.5318 14.4794 18.5428 14.2992 18.6824ZM30.4248 23.0973C30.0437 23.2885 29.9128 23.5213 29.8722 24.0803L29.8363 24.5726H26.6806H23.5249L23.304 24.1311C22.7718 23.0672 21.4099 22.7915 20.4949 23.5624C19.9351 24.034 19.7202 24.9195 20.0056 25.5794C20.6053 26.9658 22.6154 27.0616 23.3023 25.7366L23.4378 25.4753H25.5882C26.771 25.4753 27.7387 25.4886 27.7387 25.5049C27.7387 25.5212 27.5624 25.6338 27.3468 25.7552C25.3979 26.8525 23.7836 28.8271 23.1408 30.8998L22.9767 31.4292L22.4716 31.4668C22.1687 31.4894 21.8918 31.5526 21.7799 31.6247C21.4267 31.8524 21.3888 32.0252 21.3893 33.4047C21.3897 34.5437 21.4039 34.6965 21.5261 34.879C21.7662 35.2374 21.8752 35.2604 23.3417 35.2631L24.6949 35.2656L24.9401 35.0379C25.25 34.7502 25.2905 34.5086 25.2583 33.1361C25.2385 32.2908 25.2111 32.0653 25.1096 31.913C24.9292 31.6423 24.6996 31.5171 24.2977 31.4703L23.9433 31.429L24.1054 30.9599C24.7817 29.003 26.2782 27.317 28.178 26.3716C28.6836 26.12 29.6755 25.753 29.8501 25.753C29.8918 25.753 29.9259 25.8629 29.9259 25.9971C29.9259 26.178 29.9882 26.3081 30.1672 26.5005L30.4086 26.7598L31.7293 26.7816C32.6398 26.7965 33.1132 26.7775 33.2536 26.7203C33.5104 26.6157 33.7095 26.3437 33.7728 26.011C33.7999 25.8691 33.831 25.753 33.842 25.753C34.0006 25.753 34.9788 26.1168 35.4823 26.3629C37.0308 27.12 38.3745 28.4358 39.1504 29.9551C39.321 30.2892 39.7329 31.3159 39.7329 31.4071C39.7329 31.419 39.5776 31.449 39.3879 31.4738C39.1981 31.4986 38.9561 31.5859 38.8501 31.668C38.5177 31.9253 38.4629 32.1691 38.4629 33.3908C38.4629 34.614 38.5176 34.8562 38.8519 35.115C39.0359 35.2574 39.1186 35.2656 40.3842 35.2656C42.3532 35.2656 42.3434 35.2749 42.3434 33.394C42.3434 31.7009 42.2593 31.5534 41.2409 31.4605L40.7088 31.4119L40.5141 30.8217C40.2308 29.9634 39.9298 29.3544 39.4177 28.604C38.6056 27.4138 37.6371 26.5071 36.4557 25.831L35.8949 25.51L38.0781 25.4916C39.5396 25.4793 40.2694 25.497 40.2857 25.5453C40.2991 25.5849 40.4133 25.765 40.5394 25.9456C41.1681 26.8456 42.5926 26.934 43.3404 26.1194C44.2378 25.1418 43.7919 23.5796 42.5109 23.2131C41.583 22.9476 40.7261 23.3363 40.3169 24.2081L40.1458 24.5726H36.9408H33.7358V24.0612C33.7358 23.6418 33.7083 23.5154 33.5828 23.3585C33.3191 23.0285 33.0748 22.9756 31.8154 22.9758C30.8612 22.9758 30.6257 22.9964 30.4248 23.0973ZM30.8431 24.9198V25.8919H31.8761H32.9092L32.8639 25.4651C32.839 25.2304 32.8186 24.7929 32.8186 24.493V23.9477H31.8308H30.8431V24.9198ZM21.2736 24.1503C20.964 24.3361 20.8244 24.5596 20.8244 24.8693C20.8244 25.4006 21.1761 25.753 21.7063 25.753C22.0893 25.753 22.3424 25.591 22.4771 25.2598C22.6694 24.7868 22.4838 24.2915 22.047 24.1119C21.7343 23.9833 21.5355 23.9931 21.2736 24.1503ZM41.5721 24.1388C41.0501 24.4006 40.946 25.0468 41.3536 25.4957C41.5389 25.6998 41.5912 25.7183 41.9832 25.7183C42.5436 25.7183 42.7691 25.524 42.8206 24.9965C42.8605 24.5882 42.7478 24.3662 42.3925 24.153C42.1134 23.9855 41.8856 23.9815 41.5721 24.1388ZM29.3092 33.7858L27.3275 37.3053L27.6995 37.4541C28.7442 37.8719 29.5306 38.9052 29.6221 39.9806L29.6641 40.4731H31.8411H34.018V40.1669C34.018 39.7903 34.2235 39.1213 34.4625 38.72C34.728 38.2742 35.3029 37.7819 35.8486 37.5331L36.332 37.3128L34.4145 33.911C33.3599 32.04 32.4593 30.4468 32.413 30.3704C32.3457 30.259 32.3286 30.455 32.3268 31.3599C32.3253 32.1683 32.3478 32.4882 32.4063 32.4882C32.5646 32.4882 32.9628 32.8468 33.1014 33.1143C33.1943 33.2934 33.2419 33.523 33.2419 33.791C33.2419 35.2479 31.2304 35.724 30.5578 34.4264C30.3728 34.0695 30.3739 33.4738 30.5602 33.1143C30.6989 32.8468 31.0971 32.4882 31.2554 32.4882C31.3137 32.4882 31.337 32.1713 31.337 31.3772C31.337 30.7662 31.3266 30.2663 31.314 30.2663C31.3013 30.2663 30.3991 31.8501 29.3092 33.7858ZM22.2632 32.5286C22.2868 32.589 22.306 33.0264 22.306 33.5007V34.3629H23.3373H24.3685L24.326 34.2067C24.3026 34.1207 24.283 33.6833 24.2825 33.2346L24.2816 32.4187H23.251C22.3402 32.4187 22.2254 32.4315 22.2632 32.5286ZM39.3801 33.3908V34.3629H40.4031H41.4262V33.3908V32.4187H40.4031H39.3801V33.3908ZM31.5229 33.3959C31.2086 33.6391 31.3135 34.2075 31.6771 34.232C32.0724 34.2588 32.3247 34.0755 32.3247 33.7619C32.3247 33.5605 32.0335 33.252 31.8435 33.252C31.7694 33.252 31.6251 33.3167 31.5229 33.3959ZM35.078 39.6001C35.0341 39.731 34.992 39.9732 34.9844 40.1383L34.9705 40.4384L35.5032 40.4731C36.4616 40.5356 36.6285 40.7766 36.6285 42.098V42.9728L39.1861 42.9725C42.62 42.9722 42.4139 43.1117 42.4139 40.7878V39.3622H38.7859H35.1578L35.078 39.6001ZM28.0203 43.3373C28.02 44.4162 27.9997 45.4629 27.9752 45.6634L27.9307 46.0279H31.821H35.7113V43.7019V41.3758H31.8661H28.0209L28.0203 43.3373Z" fill="#303188"/>
</svg>
