<svg width="116" height="23" viewBox="0 0 116 23" fill="none" xmlns="http://www.w3.org/2000/svg">
<path d="M10.7253 14.3147H4.66816L3.66608 17.2124H0.463623L5.93217 1.98315H9.48324L14.9518 17.2124H11.7274L10.7253 14.3147ZM9.89667 11.8743L7.69629 5.51233L5.49592 11.8743H9.89667Z" fill="#08133A"/>
<path d="M16.9669 7.94178C17.4679 7.00541 18.1469 6.2753 19.0039 5.75236C19.8608 5.22941 20.8045 4.96748 21.8358 4.96748C22.6928 4.96748 23.4512 5.13085 24.1128 5.45757C24.7736 5.7843 25.3075 6.20229 25.7145 6.71063V5.1418H28.7865V22.9638H25.7145V15.5559C25.3075 16.0789 24.7626 16.5142 24.0809 16.8628C23.3982 17.2115 22.628 17.3858 21.771 17.3858C20.7543 17.3858 19.8207 17.1211 18.971 16.5909C18.1213 16.0606 17.4496 15.3241 16.9559 14.3795C16.4622 13.4359 16.2148 12.3608 16.2148 11.1552C16.2148 9.94958 16.4658 8.87815 16.9669 7.94178ZM25.2564 9.25963C24.9515 8.72209 24.5555 8.31596 24.069 8.03943C23.5826 7.76382 23.0633 7.626 22.5111 7.626C21.959 7.626 21.4616 7.76382 20.9752 8.03943C20.4887 8.31596 20.0926 8.71844 19.7878 9.24868C19.483 9.77892 19.3306 10.4141 19.3306 11.1552C19.3306 11.8962 19.483 12.5387 19.7878 13.0836C20.0926 13.6284 20.4887 14.0391 20.9752 14.3147C21.4616 14.5913 21.9736 14.7282 22.5111 14.7282C23.0487 14.7282 23.5826 14.5904 24.069 14.3147C24.5555 14.0391 24.9515 13.6321 25.2564 13.0945C25.5612 12.557 25.7136 11.9181 25.7136 11.1771C25.7136 10.436 25.5612 9.79718 25.2564 9.25963Z" fill="#08133A"/>
<path d="M43.165 5.14178V17.2124H40.0931V15.6873C39.7006 16.2103 39.1887 16.621 38.5571 16.9185C37.9256 17.216 37.2393 17.3648 36.4982 17.3648C35.5536 17.3648 34.7185 17.1649 33.993 16.7652C33.2665 16.3663 32.697 15.7777 32.2827 15.0001C31.8684 14.2235 31.6621 13.2971 31.6621 12.222V5.14087H34.7122V11.7858C34.7122 12.7441 34.9522 13.4824 35.4313 13.9971C35.9105 14.5128 36.5639 14.771 37.3917 14.771C38.2194 14.771 38.8948 14.5137 39.3739 13.9971C39.8531 13.4815 40.0931 12.7441 40.0931 11.7858V5.14087H43.165V5.14178Z" fill="#08133A"/>
<path d="M46.1176 7.887C46.604 6.94333 47.2647 6.21687 48.0998 5.70853C48.9349 5.20019 49.8676 4.94556 50.8998 4.94556C51.8006 4.94556 52.5882 5.12718 53.2635 5.49041C53.9389 5.85364 54.4801 6.31087 54.8871 6.86302V5.14178H57.9591V17.2124H54.8871V15.4473C54.4947 16.0141 53.9535 16.4822 53.2635 16.8528C52.5736 17.2233 51.7787 17.4086 50.8779 17.4086C49.8612 17.4086 48.9349 17.1476 48.0998 16.6246C47.2647 16.1017 46.604 15.3643 46.1176 14.4133C45.6311 13.4623 45.3875 12.369 45.3875 11.1342C45.3875 9.89937 45.6302 8.8325 46.1176 7.88791V7.887ZM54.4509 9.27057C54.1607 8.74032 53.7682 8.33329 53.2745 8.05037C52.7808 7.76745 52.2505 7.62599 51.6838 7.62599C51.117 7.62599 50.5941 7.7638 50.1149 8.03942C49.6358 8.31595 49.247 8.71842 48.9495 9.24866C48.652 9.77891 48.5032 10.4077 48.5032 11.1333C48.5032 11.8588 48.652 12.4949 48.9495 13.0398C49.247 13.5846 49.6394 14.0017 50.1259 14.2928C50.6123 14.584 51.1316 14.7282 51.6838 14.7282C52.2359 14.7282 52.7798 14.5867 53.2745 14.3038C53.7682 14.0209 54.1607 13.6138 54.4509 13.0836C54.7411 12.5533 54.8871 11.9181 54.8871 11.1771C54.8871 10.436 54.742 9.80081 54.4509 9.27057Z" fill="#08133A"/>
<path d="M63.3289 16.8199C62.4792 16.4567 61.8075 15.9338 61.3138 15.2511C60.8201 14.5685 60.5654 13.7626 60.5518 12.8326H63.8199C63.8637 13.4569 64.0846 13.9515 64.4843 14.3138C64.8841 14.6771 65.4316 14.8587 66.1289 14.8587C66.8262 14.8587 67.3993 14.688 67.8063 14.3467C68.2125 14.0054 68.416 13.5591 68.416 13.0069C68.416 12.557 68.2782 12.1865 68.0016 11.8962C67.7251 11.606 67.381 11.377 66.9667 11.2099C66.5524 11.0429 65.9829 10.8577 65.2564 10.6541C64.2689 10.3639 63.4658 10.0764 62.8489 9.79353C62.231 9.51061 61.7017 9.08167 61.2581 8.50853C60.8146 7.93539 60.5937 7.16878 60.5937 6.20959C60.5937 5.30882 60.8192 4.52486 61.2691 3.85681C61.719 3.18876 62.3506 2.67676 63.1646 2.32083C63.9778 1.9649 64.9078 1.78694 65.9537 1.78694C67.5225 1.78694 68.7965 2.16842 69.7776 2.93048C70.7578 3.69344 71.299 4.75758 71.4012 6.12198H68.0464C68.0172 5.59904 67.7954 5.16736 67.382 4.82603C66.9676 4.4847 66.42 4.31404 65.7374 4.31404C65.1414 4.31404 64.6659 4.46645 64.31 4.77128C63.9541 5.0761 63.7761 5.51964 63.7761 6.10008C63.7761 6.50712 63.9103 6.84479 64.1795 7.11311C64.4478 7.38234 64.7818 7.59954 65.1816 7.76655C65.5813 7.93357 66.1435 8.12614 66.87 8.34426C67.8574 8.63539 68.6633 8.92561 69.2885 9.21583C69.9127 9.50696 70.4503 9.94229 70.9011 10.5227C71.351 11.1041 71.5765 11.8661 71.5765 12.8107C71.5765 13.6248 71.3656 14.3795 70.9449 15.0768C70.5233 15.7741 69.9063 16.3299 69.0932 16.7433C68.2791 17.1567 67.3135 17.3639 66.1955 17.3639C65.135 17.3639 64.1804 17.1823 63.3307 16.819L63.3289 16.8199Z" fill="#08133A"/>
<path d="M78.8849 5.50136C79.5748 5.13083 80.3624 4.94556 81.2486 4.94556C82.2799 4.94556 83.2126 5.20019 84.0486 5.70853C84.8837 6.21687 85.5444 6.93968 86.0308 7.87605C86.5173 8.81333 86.761 9.89846 86.761 11.1333C86.761 12.3681 86.5173 13.4614 86.0308 14.4124C85.5444 15.3633 84.8837 16.1008 84.0486 16.6237C83.2135 17.1466 82.2799 17.4077 81.2486 17.4077C80.3624 17.4077 79.5821 17.226 78.9068 16.8628C78.2314 16.4996 77.6829 16.0423 77.2622 15.4902V22.9629H74.2122V5.14087H77.2622V6.88401C77.6546 6.33186 78.1949 5.87098 78.8849 5.50045V5.50136ZM83.1989 9.24866C82.9014 8.71842 82.509 8.31595 82.0225 8.03942C81.5361 7.7638 81.0095 7.62599 80.4428 7.62599C79.876 7.62599 79.3713 7.76745 78.8849 8.05037C78.3984 8.33328 78.006 8.74397 77.7085 9.28152C77.411 9.81906 77.2622 10.4506 77.2622 11.1771C77.2622 11.9035 77.411 12.5351 77.7085 13.0726C78.006 13.6102 78.3984 14.0209 78.8849 14.3038C79.3713 14.5867 79.8906 14.7282 80.4428 14.7282C80.9949 14.7282 81.5352 14.583 82.0225 14.2928C82.509 14.0026 82.9014 13.5883 83.1989 13.0507C83.4965 12.5132 83.6452 11.8743 83.6452 11.1333C83.6452 10.3922 83.4965 9.77891 83.1989 9.24866Z" fill="#08133A"/>
<path d="M89.1904 3.19238C88.8345 2.85105 88.6565 2.42668 88.6565 1.91834C88.6565 1.41 88.8345 0.985618 89.1904 0.644291C89.5463 0.302964 89.9926 0.132301 90.5301 0.132301C91.0677 0.132301 91.514 0.302964 91.8699 0.644291C92.2258 0.985618 92.4038 1.41091 92.4038 1.91834C92.4038 2.42577 92.2258 2.85197 91.8699 3.19238C91.514 3.53371 91.0668 3.70438 90.5301 3.70438C89.9935 3.70438 89.5463 3.53371 89.1904 3.19238ZM92.0333 5.14178V17.2124H88.9832V5.14178H92.0333Z" fill="#08133A"/>
<path d="M99.6265 5.51233C100.258 5.1491 100.981 4.96748 101.794 4.96748V8.16994H100.988C100.03 8.16994 99.3071 8.39536 98.8207 8.84529C98.3342 9.29522 98.0906 10.0801 98.0906 11.1981V17.2115H95.0405V5.14089H98.0906V7.01453C98.483 6.37569 98.995 5.87465 99.6265 5.51142V5.51233Z" fill="#08133A"/>
<path d="M114.975 12.0925H106.152C106.224 12.964 106.53 13.6467 107.067 14.1404C107.605 14.6342 108.265 14.8815 109.049 14.8815C110.182 14.8815 110.989 14.3951 111.468 13.4213H114.758C114.409 14.5831 113.741 15.5386 112.754 16.286C111.766 17.0344 110.553 17.4077 109.115 17.4077C107.952 17.4077 106.911 17.1503 105.988 16.6338C105.066 16.1181 104.347 15.3889 103.832 14.4443C103.316 13.5007 103.059 12.411 103.059 11.1762C103.059 9.94137 103.313 8.83068 103.822 7.8861C104.33 6.94243 105.042 6.21597 105.956 5.70763C106.872 5.19929 107.924 4.94466 109.116 4.94466C110.308 4.94466 111.291 5.19199 112.199 5.68573C113.106 6.17947 113.812 6.88038 114.313 7.78845C114.814 8.69653 115.065 9.73876 115.065 10.9152C115.065 11.3514 115.035 11.7429 114.977 12.0915L114.975 12.0925ZM111.903 10.0445C111.889 9.26054 111.606 8.63264 111.054 8.15989C110.501 7.68806 109.826 7.45169 109.028 7.45169C108.272 7.45169 107.637 7.68076 107.121 8.13799C106.605 8.59522 106.29 9.23133 106.173 10.0445H111.902H111.903Z" fill="#08133A"/>
</svg>
