<svg width="34" height="34" viewBox="0 0 34 34" fill="none" xmlns="http://www.w3.org/2000/svg">
<path d="M16.5361 0.461426C7.41881 0.461426 0 7.87818 0 16.9965C0 26.1148 7.41881 33.5316 16.5361 33.5316C25.6534 33.5316 33.0722 26.1148 33.0722 16.9965C33.0722 7.87818 25.6534 0.461426 16.5361 0.461426ZM16.5361 32.4302C8.02622 32.4302 1.10344 25.5064 1.10344 16.9965C1.10344 8.48661 8.02622 1.5628 16.5361 1.5628C25.046 1.5628 31.9688 8.48661 31.9688 16.9965C31.9688 25.5064 25.046 32.4302 16.5361 32.4302Z" fill="#444444"/>
<path d="M20.1455 7.71501H17.3941C13.8899 7.67994 13.4423 9.84866 13.4423 12.1958V13.9025H11.8955C11.8255 13.8932 11.7544 13.9001 11.6876 13.9227C11.6208 13.9453 11.5601 13.983 11.5102 14.0329C11.4603 14.0828 11.4226 14.1435 11.4 14.2103C11.3774 14.2771 11.3705 14.3482 11.3798 14.4181V17.5119C11.3705 17.5818 11.3774 17.6529 11.4 17.7197C11.4226 17.7866 11.4603 17.8473 11.5102 17.8971C11.5601 17.947 11.6208 17.9847 11.6876 18.0073C11.7544 18.0299 11.8255 18.0368 11.8955 18.0275H13.4423V25.7619C13.4337 25.8319 13.4413 25.903 13.4643 25.9697C13.4874 26.0364 13.5254 26.0969 13.5755 26.1467C13.6255 26.1964 13.6863 26.2341 13.7531 26.2567C13.8199 26.2794 13.8911 26.2865 13.9611 26.2775H17.1115C17.4157 26.3126 17.6622 26.0661 17.5653 25.7619L17.5673 18.0275H20.1455C20.2154 18.0368 20.2865 18.0299 20.3533 18.0073C20.4201 17.9847 20.4808 17.947 20.5307 17.8971C20.5806 17.8473 20.6183 17.7866 20.6409 17.7197C20.6635 17.6529 20.6704 17.5818 20.6611 17.5119V14.4181C20.6704 14.3482 20.6635 14.2771 20.6409 14.2103C20.6183 14.1435 20.5806 14.0828 20.5307 14.0329C20.4808 13.983 20.4201 13.9453 20.3533 13.9227C20.2865 13.9001 20.2154 13.8932 20.1455 13.9025H17.5642L17.5673 12.3556C17.6674 11.6967 17.6674 11.8039 18.2789 11.84H20.1238C20.2671 11.808 20.4198 11.8256 20.527 11.7214C20.6343 11.6173 20.6961 11.4749 20.6601 11.3244V8.23063C20.6696 8.16077 20.6628 8.08966 20.6404 8.02283C20.6179 7.95601 20.5803 7.89527 20.5305 7.84537C20.4807 7.79547 20.42 7.75774 20.3532 7.73512C20.2864 7.71251 20.2153 7.70563 20.1455 7.71501ZM19.5937 10.751L18.3006 10.7015C16.699 10.7015 16.565 11.5709 16.565 12.4608L16.5608 14.4161C16.5607 14.4885 16.5748 14.5602 16.6025 14.6271C16.6301 14.6941 16.6706 14.7549 16.7218 14.8061C16.7729 14.8574 16.8337 14.898 16.9005 14.9258C16.9674 14.9535 17.0391 14.9678 17.1115 14.9678H19.6298V16.9602H17.1136C16.9674 16.9602 16.8273 17.0181 16.7238 17.1214C16.6204 17.2246 16.5621 17.3647 16.5619 17.5109L16.5608 25.2463H14.4736V17.5119C14.4736 17.2077 14.2663 16.9612 13.9611 16.9612H12.4111V14.9688H13.9611C14.0334 14.9689 14.1051 14.9548 14.172 14.9272C14.2389 14.8996 14.2996 14.8591 14.3509 14.8079C14.454 14.7038 14.4726 14.5635 14.4726 14.4171V12.1948C14.4726 9.88269 14.9397 8.78132 17.3931 8.78132H19.5927V10.751H19.5937Z" fill="#444444"/>
</svg>
