<svg width="145" height="30" viewBox="0 0 145 30" fill="none" xmlns="http://www.w3.org/2000/svg">
<path d="M13.0352 18.2216H5.37466L4.10733 21.8862H0.0571671L6.97326 2.62573H11.4643L18.3804 21.8862H14.3026L13.0352 18.2216ZM11.9872 15.1352L9.20437 7.08911L6.42154 15.1352H11.9872Z" fill="#08133A"/>
<path d="M20.929 10.1618C21.5626 8.97752 22.4214 8.05415 23.5052 7.39278C24.589 6.73141 25.7825 6.40015 27.0868 6.40015C28.1706 6.40015 29.1297 6.60675 29.9665 7.01996C30.8022 7.43317 31.4774 7.96181 31.9922 8.60471V6.62061H35.8773V29.1602H31.9922V19.7914C31.4774 20.4528 30.7883 21.0034 29.9261 21.4443C29.0628 21.8852 28.0886 22.1056 27.0048 22.1056C25.719 22.1056 24.5382 21.7709 23.4637 21.1003C22.3891 20.4297 21.5396 19.4982 20.9151 18.3036C20.2907 17.1102 19.9779 15.7505 19.9779 14.2258C19.9779 12.701 20.2953 11.346 20.929 10.1618ZM31.4128 11.8285C31.0273 11.1486 30.5263 10.635 29.9111 10.2853C29.2959 9.93668 28.6392 9.76239 27.9409 9.76239C27.2426 9.76239 26.6135 9.93668 25.9983 10.2853C25.3831 10.635 24.8822 11.144 24.4967 11.8146C24.1112 12.4852 23.9184 13.2885 23.9184 14.2258C23.9184 15.163 24.1112 15.9756 24.4967 16.6646C24.8822 17.3537 25.3831 17.8731 25.9983 18.2217C26.6135 18.5714 27.261 18.7445 27.9409 18.7445C28.6207 18.7445 29.2959 18.5703 29.9111 18.2217C30.5263 17.8731 31.0273 17.3583 31.4128 16.6785C31.7983 15.9986 31.991 15.1907 31.991 14.2535C31.991 13.3162 31.7983 12.5083 31.4128 11.8285Z" fill="#08133A"/>
<path d="M54.062 6.62054V21.8863H50.1769V19.9576C49.6806 20.6189 49.0331 21.1383 48.2344 21.5146C47.4357 21.8909 46.5677 22.079 45.6304 22.079C44.4358 22.079 43.3797 21.8262 42.4621 21.3207C41.5434 20.8163 40.8231 20.0718 40.2991 19.0884C39.7751 18.1062 39.5142 16.9347 39.5142 15.575V6.61938H43.3716V15.0233C43.3716 16.2352 43.6752 17.169 44.2812 17.8199C44.8871 18.4721 45.7136 18.7987 46.7604 18.7987C47.8073 18.7987 48.6614 18.4732 49.2674 17.8199C49.8734 17.1678 50.1769 16.2352 50.1769 15.0233V6.61938H54.062V6.62054Z" fill="#08133A"/>
<path d="M57.7959 10.0924C58.4111 8.8989 59.2468 7.98014 60.3029 7.33724C61.359 6.69434 62.5386 6.37231 63.8441 6.37231C64.9833 6.37231 65.9794 6.602 66.8335 7.06138C67.6876 7.52076 68.3721 8.09903 68.8868 8.79733V6.62047H72.772V21.8862H68.8868V19.6539C68.3905 20.3707 67.7061 20.9628 66.8335 21.4314C65.9609 21.9 64.9556 22.1344 63.8164 22.1344C62.5306 22.1344 61.359 21.8042 60.3029 21.1429C59.2468 20.4815 58.4111 19.5489 57.7959 18.3462C57.1807 17.1435 56.8726 15.7607 56.8726 14.1991C56.8726 12.6374 57.1796 11.2881 57.7959 10.0935V10.0924ZM68.3351 11.8422C67.9681 11.1716 67.4718 10.6568 66.8473 10.299C66.2229 9.94117 65.5523 9.76226 64.8355 9.76226C64.1188 9.76226 63.4574 9.93655 62.8514 10.2851C62.2455 10.6349 61.7538 11.1439 61.3775 11.8145C61.0012 12.4851 60.8131 13.2803 60.8131 14.1979C60.8131 15.1155 61.0012 15.92 61.3775 16.6091C61.7538 17.2982 62.2501 17.8256 62.8653 18.1938C63.4805 18.562 64.1372 18.7444 64.8355 18.7444C65.5338 18.7444 66.2218 18.5655 66.8473 18.2077C67.4718 17.8499 67.9681 17.3351 68.3351 16.6645C68.7022 15.9939 68.8868 15.1906 68.8868 14.2533C68.8868 13.3161 68.7033 12.5128 68.3351 11.8422Z" fill="#08133A"/>
<path d="M79.5634 21.3898C78.4888 20.9304 77.6393 20.269 77.0149 19.4057C76.3904 18.5423 76.0684 17.5231 76.0511 16.347H80.1844C80.2398 17.1365 80.5191 17.7621 81.0246 18.2203C81.5302 18.6797 82.2227 18.9093 83.1045 18.9093C83.9864 18.9093 84.7112 18.6935 85.226 18.2618C85.7396 17.8302 85.997 17.2657 85.997 16.5674C85.997 15.9984 85.8227 15.5298 85.473 15.1627C85.1233 14.7957 84.6881 14.506 84.1641 14.2948C83.6401 14.0836 82.9199 13.8492 82.0011 13.5918C80.7522 13.2248 79.7365 12.8612 78.9563 12.5034C78.1749 12.1456 77.5054 11.6031 76.9445 10.8783C76.3835 10.1534 76.1042 9.18388 76.1042 7.97079C76.1042 6.83158 76.3893 5.8401 76.9583 4.99521C77.5273 4.15032 78.3261 3.5028 79.3556 3.05266C80.384 2.60251 81.5602 2.37744 82.8829 2.37744C84.867 2.37744 86.4783 2.8599 87.7191 3.82368C88.9588 4.78861 89.6432 6.13443 89.7725 7.85999H85.5296C85.4926 7.19862 85.2122 6.65267 84.6893 6.221C84.1653 5.78932 83.4727 5.57348 82.6094 5.57348C81.8557 5.57348 81.2543 5.76624 80.8042 6.15175C80.354 6.53726 80.129 7.09821 80.129 7.83229C80.129 8.34707 80.2986 8.77413 80.6391 9.11347C80.9785 9.45397 81.4009 9.72867 81.9065 9.93989C82.412 10.1511 83.123 10.3947 84.0418 10.6705C85.2906 11.0387 86.3098 11.4058 87.1005 11.7728C87.8899 12.141 88.5698 12.6916 89.14 13.4256C89.709 14.1609 89.9941 15.1247 89.9941 16.3193C89.9941 17.3488 89.7275 18.3034 89.1954 19.1852C88.6621 20.067 87.8819 20.77 86.8535 21.2928C85.8239 21.8157 84.6027 22.0777 83.1888 22.0777C81.8476 22.0777 80.6403 21.848 79.5657 21.3886L79.5634 21.3898Z" fill="#08133A"/>
<path d="M99.2371 7.07524C100.11 6.60662 101.106 6.37231 102.227 6.37231C103.531 6.37231 104.71 6.69434 105.768 7.33724C106.824 7.98014 107.659 8.89429 108.275 10.0785C108.89 11.2639 109.198 12.6363 109.198 14.1979C109.198 15.7596 108.89 17.1423 108.275 18.345C107.659 19.5477 106.824 20.4804 105.768 21.1417C104.712 21.8031 103.531 22.1332 102.227 22.1332C101.106 22.1332 100.119 21.9035 99.2648 21.4441C98.4107 20.9848 97.717 20.4065 97.1849 19.7082V29.1589H93.3275V6.61932H97.1849V8.82388C97.6812 8.12557 98.3645 7.5427 99.2371 7.07408V7.07524ZM104.693 11.8145C104.317 11.1439 103.821 10.6349 103.205 10.2851C102.59 9.93655 101.924 9.76226 101.207 9.76226C100.491 9.76226 99.8523 9.94117 99.2371 10.299C98.6219 10.6568 98.1256 11.1762 97.7493 11.856C97.373 12.5359 97.1849 13.3346 97.1849 14.2533C97.1849 15.1721 97.373 15.9708 97.7493 16.6507C98.1256 17.3305 98.6219 17.8499 99.2371 18.2077C99.8523 18.5655 100.509 18.7444 101.207 18.7444C101.906 18.7444 102.589 18.5609 103.205 18.1938C103.821 17.8268 104.317 17.3028 104.693 16.623C105.069 15.9431 105.258 15.1352 105.258 14.1979C105.258 13.2607 105.069 12.4851 104.693 11.8145Z" fill="#08133A"/>
<path d="M112.271 4.15501C111.82 3.72333 111.595 3.18662 111.595 2.54372C111.595 1.90082 111.82 1.36411 112.271 0.932428C112.721 0.50075 113.285 0.284912 113.965 0.284912C114.645 0.284912 115.209 0.50075 115.659 0.932428C116.109 1.36411 116.335 1.90198 116.335 2.54372C116.335 3.18547 116.109 3.72449 115.659 4.15501C115.209 4.58669 114.644 4.80253 113.965 4.80253C113.286 4.80253 112.721 4.58669 112.271 4.15501ZM115.866 6.62043V21.8862H112.009V6.62043H115.866Z" fill="#08133A"/>
<path d="M125.469 7.08922C126.268 6.62984 127.182 6.40015 128.21 6.40015V10.4503H127.191C125.979 10.4503 125.065 10.7354 124.45 11.3044C123.835 11.8735 123.527 12.8661 123.527 14.28V21.8852H119.669V6.61945H123.527V8.98906C124.023 8.18111 124.67 7.54744 125.469 7.08806V7.08922Z" fill="#08133A"/>
<path d="M144.881 15.411H133.722C133.813 16.5132 134.2 17.3766 134.879 18.001C135.559 18.6255 136.395 18.9383 137.386 18.9383C138.819 18.9383 139.839 18.3231 140.445 17.0915H144.606C144.165 18.5608 143.32 19.7693 142.071 20.7146C140.823 21.6611 139.289 22.1331 137.469 22.1331C135.999 22.1331 134.682 21.8076 133.515 21.1544C132.348 20.5022 131.439 19.58 130.788 18.3854C130.136 17.1919 129.81 15.8138 129.81 14.2521C129.81 12.6905 130.131 11.2858 130.775 10.0911C131.418 8.89768 132.318 7.97892 133.475 7.33602C134.632 6.69312 135.963 6.37109 137.471 6.37109C138.978 6.37109 140.221 6.68389 141.37 7.30832C142.517 7.93275 143.409 8.8192 144.043 9.96765C144.676 11.1161 144.994 12.4342 144.994 13.922C144.994 14.4737 144.957 14.9689 144.883 15.4098L144.881 15.411ZM140.996 12.8209C140.977 11.8294 140.619 11.0353 139.921 10.4374C139.223 9.84068 138.369 9.54174 137.359 9.54174C136.403 9.54174 135.6 9.83145 134.948 10.4097C134.295 10.988 133.896 11.7925 133.748 12.8209H140.994H140.996Z" fill="#08133A"/>
</svg>
